<mxfile host="app.diagrams.net" modified="2020-11-05T05:08:36.738Z" agent="5.0 (Windows)" etag="6dnMHGln4FSe5p-tLM5k" version="13.9.1" type="github">
  <diagram id="5b3xqpmSote6IkgPTgAm" name="Page-1">
    <mxGraphModel dx="868" dy="479" grid="1" gridSize="10" guides="1" tooltips="1" connect="1" arrows="1" fold="1" page="1" pageScale="1" pageWidth="827" pageHeight="1169" math="0" shadow="0">
      <root>
        <mxCell id="0" />
        <mxCell id="1" parent="0" />
        <mxCell id="98MKtr_wibg7zyHbtHh_-44" value="系统结构的架构" style="swimlane;html=1;childLayout=stackLayout;resizeParent=1;resizeParentMax=0;horizontal=1;startSize=20;horizontalStack=0;" vertex="1" parent="1">
          <mxGeometry x="100" y="40" width="510" height="395" as="geometry">
            <mxRectangle x="140" y="30" width="60" height="20" as="alternateBounds" />
          </mxGeometry>
        </mxCell>
        <mxCell id="98MKtr_wibg7zyHbtHh_-45" value="表现层" style="swimlane;html=1;startSize=37;horizontal=0;" vertex="1" parent="98MKtr_wibg7zyHbtHh_-44">
          <mxGeometry y="20" width="510" height="120" as="geometry">
            <mxRectangle y="20" width="510" height="60" as="alternateBounds" />
          </mxGeometry>
        </mxCell>
        <mxCell id="98MKtr_wibg7zyHbtHh_-46" value="" style="verticalLabelPosition=bottom;verticalAlign=top;html=1;shape=mxgraph.basic.rect;fillColor=#ffffff;fillColor2=none;strokeColor=#000000;strokeWidth=1;size=20;indent=5;" vertex="1" parent="98MKtr_wibg7zyHbtHh_-45">
          <mxGeometry x="60" y="30" width="120" height="60" as="geometry" />
        </mxCell>
        <mxCell id="98MKtr_wibg7zyHbtHh_-47" value="" style="verticalLabelPosition=bottom;verticalAlign=top;html=1;shape=mxgraph.basic.rect;fillColor=#ffffff;fillColor2=none;strokeColor=#000000;strokeWidth=1;size=20;indent=5;" vertex="1" parent="98MKtr_wibg7zyHbtHh_-45">
          <mxGeometry x="203.5" y="30" width="120" height="60" as="geometry" />
        </mxCell>
        <mxCell id="98MKtr_wibg7zyHbtHh_-48" value="" style="verticalLabelPosition=bottom;verticalAlign=top;html=1;shape=mxgraph.basic.rect;fillColor=#ffffff;fillColor2=none;strokeColor=#000000;strokeWidth=1;size=20;indent=5;" vertex="1" parent="98MKtr_wibg7zyHbtHh_-45">
          <mxGeometry x="370" y="30" width="120" height="60" as="geometry" />
        </mxCell>
        <UserObject label="管理员登录" placeholders="1" name="Variable" id="98MKtr_wibg7zyHbtHh_-49">
          <mxCell style="text;html=1;strokeColor=none;fillColor=none;align=center;verticalAlign=middle;whiteSpace=wrap;overflow=hidden;" vertex="1" parent="98MKtr_wibg7zyHbtHh_-45">
            <mxGeometry x="77" y="50" width="80" height="20" as="geometry" />
          </mxCell>
        </UserObject>
        <UserObject label="商品的基本操作" placeholders="1" name="Variable" id="98MKtr_wibg7zyHbtHh_-50">
          <mxCell style="text;html=1;strokeColor=none;fillColor=none;align=center;verticalAlign=middle;whiteSpace=wrap;overflow=hidden;" vertex="1" parent="98MKtr_wibg7zyHbtHh_-45">
            <mxGeometry x="213.5" y="50" width="100" height="20" as="geometry" />
          </mxCell>
        </UserObject>
        <UserObject label="对库存的基本操作" placeholders="1" name="Variable" id="98MKtr_wibg7zyHbtHh_-51">
          <mxCell style="text;html=1;strokeColor=none;fillColor=none;align=center;verticalAlign=middle;whiteSpace=wrap;overflow=hidden;" vertex="1" parent="98MKtr_wibg7zyHbtHh_-45">
            <mxGeometry x="370" y="50" width="120" height="20" as="geometry" />
          </mxCell>
        </UserObject>
        <mxCell id="98MKtr_wibg7zyHbtHh_-52" value="应用层" style="swimlane;html=1;startSize=38;horizontal=0;" vertex="1" parent="98MKtr_wibg7zyHbtHh_-44">
          <mxGeometry y="140" width="510" height="135" as="geometry" />
        </mxCell>
        <mxCell id="98MKtr_wibg7zyHbtHh_-53" value="" style="verticalLabelPosition=bottom;verticalAlign=top;html=1;shape=mxgraph.basic.rect;fillColor=#ffffff;fillColor2=none;strokeColor=#000000;strokeWidth=1;size=20;indent=5;" vertex="1" parent="98MKtr_wibg7zyHbtHh_-52">
          <mxGeometry x="57" y="20" width="120" height="40" as="geometry" />
        </mxCell>
        <mxCell id="98MKtr_wibg7zyHbtHh_-54" value="" style="verticalLabelPosition=bottom;verticalAlign=top;html=1;shape=mxgraph.basic.rect;fillColor=#ffffff;fillColor2=none;strokeColor=#000000;strokeWidth=1;size=20;indent=5;" vertex="1" parent="98MKtr_wibg7zyHbtHh_-52">
          <mxGeometry x="210" y="30" width="120" height="60" as="geometry" />
        </mxCell>
        <mxCell id="98MKtr_wibg7zyHbtHh_-55" value="" style="verticalLabelPosition=bottom;verticalAlign=top;html=1;shape=mxgraph.basic.rect;fillColor=#ffffff;fillColor2=none;strokeColor=#000000;strokeWidth=1;size=20;indent=5;" vertex="1" parent="98MKtr_wibg7zyHbtHh_-52">
          <mxGeometry x="370" y="30" width="120" height="60" as="geometry" />
        </mxCell>
        <UserObject label="商品系统" placeholders="1" name="Variable" id="98MKtr_wibg7zyHbtHh_-56">
          <mxCell style="text;html=1;strokeColor=none;fillColor=none;align=center;verticalAlign=middle;whiteSpace=wrap;overflow=hidden;" vertex="1" parent="98MKtr_wibg7zyHbtHh_-52">
            <mxGeometry x="75.5" y="30" width="83" height="20" as="geometry" />
          </mxCell>
        </UserObject>
        <UserObject label="库存系统" placeholders="1" name="Variable" id="98MKtr_wibg7zyHbtHh_-57">
          <mxCell style="text;html=1;strokeColor=none;fillColor=none;align=center;verticalAlign=middle;whiteSpace=wrap;overflow=hidden;" vertex="1" parent="98MKtr_wibg7zyHbtHh_-52">
            <mxGeometry x="230" y="50" width="80" height="20" as="geometry" />
          </mxCell>
        </UserObject>
        <UserObject label="系统管理系统" placeholders="1" name="Variable" id="98MKtr_wibg7zyHbtHh_-58">
          <mxCell style="text;html=1;strokeColor=none;fillColor=none;align=center;verticalAlign=middle;whiteSpace=wrap;overflow=hidden;" vertex="1" parent="98MKtr_wibg7zyHbtHh_-52">
            <mxGeometry x="390" y="50" width="80" height="20" as="geometry" />
          </mxCell>
        </UserObject>
        <mxCell id="98MKtr_wibg7zyHbtHh_-59" value="" style="verticalLabelPosition=bottom;verticalAlign=top;html=1;shape=mxgraph.basic.rect;fillColor=#ffffff;fillColor2=none;strokeColor=#000000;strokeWidth=1;size=20;indent=5;" vertex="1" parent="98MKtr_wibg7zyHbtHh_-52">
          <mxGeometry x="57" y="75" width="123" height="35" as="geometry" />
        </mxCell>
        <UserObject label="后台系统" placeholders="1" name="Variable" id="98MKtr_wibg7zyHbtHh_-60">
          <mxCell style="text;html=1;strokeColor=none;fillColor=none;align=center;verticalAlign=middle;whiteSpace=wrap;overflow=hidden;" vertex="1" parent="98MKtr_wibg7zyHbtHh_-52">
            <mxGeometry x="80" y="82.5" width="80" height="20" as="geometry" />
          </mxCell>
        </UserObject>
        <mxCell id="98MKtr_wibg7zyHbtHh_-61" value="数据库层" style="swimlane;html=1;startSize=38;horizontal=0;" vertex="1" parent="98MKtr_wibg7zyHbtHh_-44">
          <mxGeometry y="275" width="510" height="120" as="geometry" />
        </mxCell>
        <mxCell id="98MKtr_wibg7zyHbtHh_-62" value="" style="verticalLabelPosition=bottom;verticalAlign=top;html=1;shape=mxgraph.basic.rect;fillColor=#ffffff;fillColor2=none;strokeColor=#000000;strokeWidth=1;size=20;indent=5;" vertex="1" parent="98MKtr_wibg7zyHbtHh_-61">
          <mxGeometry x="70" y="30" width="120" height="60" as="geometry" />
        </mxCell>
        <mxCell id="98MKtr_wibg7zyHbtHh_-63" value="" style="verticalLabelPosition=bottom;verticalAlign=top;html=1;shape=mxgraph.basic.rect;fillColor=#ffffff;fillColor2=none;strokeColor=#000000;strokeWidth=1;size=20;indent=5;" vertex="1" parent="98MKtr_wibg7zyHbtHh_-61">
          <mxGeometry x="210" y="30" width="120" height="60" as="geometry" />
        </mxCell>
        <mxCell id="98MKtr_wibg7zyHbtHh_-64" value="" style="verticalLabelPosition=bottom;verticalAlign=top;html=1;shape=mxgraph.basic.rect;fillColor=#ffffff;fillColor2=none;strokeColor=#000000;strokeWidth=1;size=20;indent=5;" vertex="1" parent="98MKtr_wibg7zyHbtHh_-61">
          <mxGeometry x="370" y="30" width="120" height="60" as="geometry" />
        </mxCell>
        <UserObject label="用户数据库" placeholders="1" name="Variable" id="98MKtr_wibg7zyHbtHh_-65">
          <mxCell style="text;html=1;strokeColor=none;fillColor=none;align=center;verticalAlign=middle;whiteSpace=wrap;overflow=hidden;" vertex="1" parent="98MKtr_wibg7zyHbtHh_-61">
            <mxGeometry x="90" y="50" width="80" height="20" as="geometry" />
          </mxCell>
        </UserObject>
        <mxCell id="98MKtr_wibg7zyHbtHh_-66" value="" style="swimlane;html=1;startSize=20;horizontal=0;" vertex="1" parent="98MKtr_wibg7zyHbtHh_-44">
          <mxGeometry y="395" width="510" as="geometry">
            <mxRectangle y="380" width="510" height="60" as="alternateBounds" />
          </mxGeometry>
        </mxCell>
        <mxCell id="98MKtr_wibg7zyHbtHh_-67" value="" style="edgeStyle=orthogonalEdgeStyle;rounded=0;html=1;jettySize=auto;orthogonalLoop=1;" edge="1" parent="98MKtr_wibg7zyHbtHh_-44" source="98MKtr_wibg7zyHbtHh_-48" target="98MKtr_wibg7zyHbtHh_-55">
          <mxGeometry relative="1" as="geometry" />
        </mxCell>
      </root>
    </mxGraphModel>
  </diagram>
</mxfile>
